# xmcd CD database file
#
# Track frame offsets:
#	150
#	36647
#	52531
#	78773
#	113058
#	140805
#	177449
#	208662
#	226998
#	249377
#
# Disc length: 3648 seconds
#
# Revision: 0
# Processed by: cddbd v1.5.2PL0 Copyright (c) Steve Scherf et al.
# Submitted via: CDex 1.70beta2
#
DISCID=820e3e0a
DTITLE=Coleman Hawkins - Body and Soul
DYEAR=1900
DGENRE=Jazz
TTITLE0=Lover Come Back To Me
TTITLE1=Body And Soul
TTITLE2=Rifftide
TTITLE3=Stuffy
TTITLE4=Vignette
TTITLE5=Centerpriece
TTITLE6=Stoned
TTITLE7=Disorder At The Border
TTITLE8=If I Had You
TTITLE9=All The Things You Are
EXTD=
EXTT0=
EXTT1=
EXTT2=
EXTT3=
EXTT4=
EXTT5=
EXTT6=
EXTT7=
EXTT8=
EXTT9=
PLAYORDER=
